<svg xmlns="http://www.w3.org/2000/svg" width="2621.489" height="604.562" viewBox="0 0 2621.489 604.562"><g id="Logo_Standard_en_ligne_bleu" data-name="Logo Standard en ligne_bleu" transform="translate(311.722 -108.473)"><g id="Calque_1" data-name="Calque 1" transform="translate(-311.722 108.472)"><path id="Trac&#xE9;_210" data-name="Trac&#xE9; 210" d="M449.6,689.673H362.9a166.829,166.829,0,0,1-73.986-17.042A146.945,146.945,0,0,1,256.4,650.059a151.646,151.646,0,0,1-40.232-56.408,163.422,163.422,0,0,1-10.812-42.172,151.314,151.314,0,0,1,6.727-66.022,153.211,153.211,0,0,1,59.131-79.722,149.451,149.451,0,0,1,56.49-24.139l10.4-2.228c.371-2.063.784-4.126,1.238-6.355a217.837,217.837,0,0,1,17.744-54.427A194.463,194.463,0,0,1,491.275,213.323a195.637,195.637,0,0,1,57.77-5.24,212.063,212.063,0,0,1,40.274,6.974,193.155,193.155,0,0,1,88.346,50.136l2.229,2.187c.206,0,.536.248.288,0,11.43-3.053,22.406-6.148,33.506-8.83a220.532,220.532,0,0,1,29.463-4.415,153.409,153.409,0,0,1,45.39,2.93c11.925,2.31,23.644,5.529,35.4,8.748a174.386,174.386,0,0,1,37.137,16.506,223.9,223.9,0,0,1,47.453,35.239,237.935,237.935,0,0,1,31.609,38.458,205.794,205.794,0,0,1,30.948,74.77c.908,4.126,1.939,8.666,2.641,13.081a3.838,3.838,0,0,0,3.466,3.755c6.519,1.444,13,3.053,19.394,5.034a120.861,120.861,0,0,1,73.16,72.955c5.406,16.918,9.409,34.207,7.139,52.074a133.152,133.152,0,0,1-11.141,41.512,119.048,119.048,0,0,1-66.022,61.9,122.733,122.733,0,0,1-44.813,8.583H844.453v99.776a20.633,20.633,0,0,1-15.061,20.632,19.562,19.562,0,0,1-4.375.536H692.932a19.848,19.848,0,0,1-19.395-18.362V526.68A20.262,20.262,0,0,1,679.6,511a18.65,18.65,0,0,1,13.2-5.405H825.224a19.435,19.435,0,0,1,19.559,18.981V665.162c1.65,0,2.971.289,4.127.289H956.2a97.96,97.96,0,0,0,21.87-193.2A181,181,0,0,0,956.9,469.53a36.079,36.079,0,0,0-4.787,0c-.207-1.692-.413-3.1-.5-4.5a186.55,186.55,0,0,0-29.338-91.854,201.739,201.739,0,0,0-106.007-84.3,181.315,181.315,0,0,0-70.974-10.4,170.093,170.093,0,0,0-68.374,18.074l-2.393,1.155c-32.145-38-72.707-60.823-122.76-64.949A171.12,171.12,0,0,0,420.1,276.085c-37.674,33.011-57.151,75.43-60.122,125.607a11.982,11.982,0,0,1-2.476.454,129.4,129.4,0,0,0-97.63,46.257,126.144,126.144,0,0,0-30.742,71.221A132.045,132.045,0,0,0,336.7,663.511a121.069,121.069,0,0,0,23.479,1.939h89.171v-5.158c0-20.632,0-41.264-.206-61.9a92.672,92.672,0,0,1,10.976-45.844,87.812,87.812,0,0,1,45.638-41.842,70.435,70.435,0,0,1,23.52-4.539c5.034,0,10.11-.248,15.144,0,9.119.248,13.535,4.374,14.649,13.411v1.32c-.289,13.2-.413,26.409-.991,39.614a33.707,33.707,0,0,1-2.641,10.275,23.149,23.149,0,0,1-19.765,15.226,53.16,53.16,0,0,1-8.872.618,9.987,9.987,0,0,0-6.891,2.476,46.3,46.3,0,0,0-16.01,26.615,153.71,153.71,0,0,0-3.425,24.18,314.869,314.869,0,0,0,.578,45.844,79.85,79.85,0,0,0,7.015,27.895,45.383,45.383,0,0,0,11.884,15.391,11.509,11.509,0,0,0,7.675,2.806,59.529,59.529,0,0,1,12.379,1.32,22.282,22.282,0,0,1,15.6,13.411,52.148,52.148,0,0,1,4.126,20.013c.33,9.491.536,18.981.33,28.472-.33,14.648-7.015,17.207-17.5,17.166a125.313,125.313,0,0,1-27.482-2.021,77.208,77.208,0,0,1-41.016-25.336,93.711,93.711,0,0,1-24.758-64.661V694.831Zm377.935,79.68V529.4H690.622V769.353ZM759.2,805.088a14.319,14.319,0,1,0-14.443-14.4A14.319,14.319,0,0,0,759.2,805.088Zm.33-289.755h-18.28c-1.816,0-4.126-.578-4.456,2.311-.207,1.651,1.114,2.311,4.415,2.311H776.7a6.239,6.239,0,0,0,2.641,0c.784-.412,1.733-1.4,1.733-2.146a3.175,3.175,0,0,0-1.733-2.146,8.251,8.251,0,0,0-3.053,0Z" transform="translate(-204.278 -207.749)" fill="#264a6e"></path><g id="Groupe_133" data-name="Groupe 133" transform="translate(999.431 379.729)"><path id="Trac&#xE9;_211" data-name="Trac&#xE9; 211" d="M72.32,483.356V423.1a87.78,87.78,0,0,1,18.389.933,15.629,15.629,0,0,1,7.115,26.048,2.228,2.228,0,0,0-.466.583v.35a.808.808,0,0,0,.427.466,14.968,14.968,0,0,1,9.8,16.134,14.619,14.619,0,0,1-7.775,12.907A22.361,22.361,0,0,1,89.5,483.2C83.789,483.473,78.229,483.356,72.32,483.356Zm9.253-26.4v18.078c3.888-.427,7.775-.5,11.119-1.244a7.542,7.542,0,0,0,5.832-7.775,8.2,8.2,0,0,0-7.775-9.214C87.677,456.725,84.761,456.959,81.573,456.959Zm0-7.775c4.315-.273,8.631.233,10.963-3.888a9.253,9.253,0,0,0,0-10.147c-2.6-3.887-6.648-3.421-10.769-3.11Z" transform="translate(-72.32 -417.692)" fill="#264a6e"></path><path id="Trac&#xE9;_212" data-name="Trac&#xE9; 212" d="M313.12,467.464h-8.4a22.605,22.605,0,0,1-.272-2.8V447.6a55.974,55.974,0,0,0-.545-6.259,4.937,4.937,0,0,0-3.693-4.588,5.988,5.988,0,0,0-6.337,2.021,9.217,9.217,0,0,0-2.021,6.22v22.393H283.34V429.909h8.086l.855,2.06c7.776-5.093,11.663-4.742,18.739,1.594a13.956,13.956,0,0,1,9.175-4.977,12.13,12.13,0,0,1,13.957,11.08,49.792,49.792,0,0,1,.233,5.909V467.5H325.95a31.655,31.655,0,0,1-.272-3.227V446.082a28.7,28.7,0,0,0-.35-4.821,5.016,5.016,0,0,0-3.421-4.432,5.832,5.832,0,0,0-6.1,1.516,8.865,8.865,0,0,0-2.333,6.454q0,9.1,0,18.194Z" transform="translate(537.051 -401.878)" fill="#264a6e"></path><path id="Trac&#xE9;_213" data-name="Trac&#xE9; 213" d="M160.6,470.255v8.9a2.488,2.488,0,0,1-1.672,2.565,30.519,30.519,0,0,1-44.9-22.821,36.891,36.891,0,0,1,1.011-14.734,28.808,28.808,0,0,1,27.214-21.383,32.156,32.156,0,0,1,15.823,2.76,3.888,3.888,0,0,1,2.682,4.238v7.775c-1.438-.972-2.41-1.594-3.383-2.293a22.12,22.12,0,0,0-17.572-3.577,19.165,19.165,0,0,0-13.84,10.186,24.687,24.687,0,0,0-1.011,21.849,21.033,21.033,0,0,0,29.391,10.418A56.189,56.189,0,0,0,160.6,470.255Z" transform="translate(47.164 -418.509)" fill="#264a6e"></path><path id="Trac&#xE9;_214" data-name="Trac&#xE9; 214" d="M239.145,454.9l7.076,3.888c-.933,1.361-1.633,2.527-2.449,3.538a20.023,20.023,0,0,1-20.955,5.444,18.234,18.234,0,0,1-11.857-16.835,23.68,23.68,0,0,1,2.721-12.907,17.418,17.418,0,0,1,17.767-9.486,16.407,16.407,0,0,1,14.19,13.647,27.931,27.931,0,0,1,.661,4.393v3.887H220.367A9.486,9.486,0,0,0,225.849,460C230.436,461.823,234.635,460.424,239.145,454.9Zm-1.905-11.663a7.97,7.97,0,0,0-8.708-7.114,7.775,7.775,0,0,0-7.425,7.114Z" transform="translate(327.843 -401.991)" fill="#264a6e"></path><path id="Trac&#xE9;_215" data-name="Trac&#xE9; 215" d="M271.853,450.735h-26.2a8.941,8.941,0,0,0,5.4,9.369c5.365,1.478,8.631.933,13.257-5.248l7.115,3.888c-.739,1.166-1.283,2.1-1.905,2.954a19.439,19.439,0,0,1-21.033,6.143,17.884,17.884,0,0,1-12.246-16.834,23.329,23.329,0,0,1,2.838-13.257A17.3,17.3,0,0,1,257,428.613a16.253,16.253,0,0,1,13.88,13.53A81.415,81.415,0,0,1,271.853,450.735Zm-25.931-7.309h16.717c-1.672-5.093-4.238-7.154-8.32-7.115S247.632,438.45,245.922,443.426Z" transform="translate(400.804 -401.943)" fill="#264a6e"></path><path id="Trac&#xE9;_216" data-name="Trac&#xE9; 216" d="M108.329,450.5l5.6-11.352,5.093-10.342H128.9L99.349,486.737h-9.6c.389-.971.661-1.827,1.089-2.643,3.46-6.687,6.842-13.413,10.458-20.022a6.494,6.494,0,0,0,0-7.115c-4.315-8.047-8.281-16.289-12.4-24.454-.544-1.088-1.05-2.216-1.711-3.577h10.5Z" transform="translate(-29.408 -400.818)" fill="#264a6e"></path><path id="Trac&#xE9;_217" data-name="Trac&#xE9; 217" d="M305.97,448.756a19.439,19.439,0,0,1-20.177,19.827,20.062,20.062,0,1,1,.427-40.122,19.439,19.439,0,0,1,19.75,20.294Zm-8.669,0a40.6,40.6,0,0,0-1.05-5.171,10.925,10.925,0,0,0-20.372,0,15.552,15.552,0,0,0,0,10.185,10.964,10.964,0,0,0,20.255.273,36.31,36.31,0,0,0,1.127-5.4Z" transform="translate(486.818 -401.831)" fill="#264a6e"></path><path id="Trac&#xE9;_218" data-name="Trac&#xE9; 218" d="M198.549,448.556A19.944,19.944,0,1,1,178.7,428.515,19.944,19.944,0,0,1,198.549,448.556Zm-8.67,0a48.548,48.548,0,0,0-1.049-5.17,10.069,10.069,0,0,0-9.875-6.92,10.225,10.225,0,0,0-10.38,6.686,14.933,14.933,0,0,0,0,10.848,10.031,10.031,0,0,0,10.108,6.57,9.874,9.874,0,0,0,9.992-6.687,36.228,36.228,0,0,0,1.2-5.443Z" transform="translate(177.007 -401.671)" fill="#264a6e"></path><path id="Trac&#xE9;_219" data-name="Trac&#xE9; 219" d="M172.2,448.487a19.438,19.438,0,0,1-19.905,20.1,20.061,20.061,0,1,1,0-40.121A19.439,19.439,0,0,1,172.2,448.487Zm-8.67,0c-.272-7.115-4.277-11.664-10.575-11.975a10.693,10.693,0,0,0-11.663,11.08,17.616,17.616,0,0,0,.544,5.132,10.924,10.924,0,0,0,20.683.738A44.635,44.635,0,0,0,163.526,448.487Z" transform="translate(100.685 -401.834)" fill="#264a6e"></path><path id="Trac&#xE9;_220" data-name="Trac&#xE9; 220" d="M219.555,482.826h-9.292V431.391H196.85V423.11H232.7v8.165H219.555Z" transform="translate(287.291 -417.278)" fill="#264a6e"></path><path id="Trac&#xE9;_221" data-name="Trac&#xE9; 221" d="M282.771,441.031a15.24,15.24,0,0,0-13.685-4.2,10.149,10.149,0,0,0-6.3,4.277,13.957,13.957,0,0,0,1.2,16.678c4.315,4.316,10.925,3.888,18.7-1.283v8.553c0,.622-.972,1.4-1.671,1.711-12.635,5.559-28.77.272-29.12-16.951a25.429,25.429,0,0,1,1.011-8.047,20.489,20.489,0,0,1,28.264-11.2,2.526,2.526,0,0,1,1.633,2.565C282.732,435.394,282.771,437.8,282.771,441.031Z" transform="translate(446.22 -401.842)" fill="#264a6e"></path><path id="Trac&#xE9;_222" data-name="Trac&#xE9; 222" d="M157.84,487.206h-8.32V421.62h8.32Z" transform="translate(150.614 -421.581)" fill="#264a6e"></path><path id="Trac&#xE9;_223" data-name="Trac&#xE9; 223" d="M227.09,421.61h8.32v65.43h-8.32Z" transform="translate(374.615 -421.61)" fill="#264a6e"></path><path id="Trac&#xE9;_224" data-name="Trac&#xE9; 224" d="M184.8,431.895c6.182-4.16,9.991-4.51,15.318-1.322l-3.344,7.5c-.933-.272-1.71-.545-2.527-.7a7.27,7.27,0,0,0-9.6,6.843c-.311,2.8-.195,5.677-.233,8.514v14.656H175.94V429.718h6.182C184.143,429.718,184.493,430.612,184.8,431.895Z" transform="translate(226.908 -401.881)" fill="#264a6e"></path></g><text id="TANDARD_EN_LIGNE" data-name="TANDARD EN LIGNE" transform="translate(1072.489 328.242)" fill="#264a6e" font-size="167" font-family="Arial-BoldMT, Arial" font-weight="700"><tspan x="0" y="0">TANDARD</tspan><tspan y="0"> </tspan><tspan y="0" font-family="SegoeUI-Light, Segoe UI" font-weight="300">EN LIGNE</tspan></text><text id="S" transform="translate(969.882 327.225)" fill="#264a6e" font-size="167" font-family="Arial-BoldMT, Arial" font-weight="700"><tspan x="0" y="0">S</tspan></text></g></g></svg>